<?xml version="1.0" encoding="iso-8859-1"?>
<!-- Generator: Adobe Illustrator 19.0.0, SVG Export Plug-In . SVG Version: 6.00 Build 0)  -->
<svg version="1.1" id="Layer_1" xmlns="http://www.w3.org/2000/svg" xmlns:xlink="http://www.w3.org/1999/xlink" x="0px" y="0px"
	 viewBox="0 0 512 512" style="enable-background:new 0 0 512 512;" xml:space="preserve">
<g>
	<g>
		<path d="M503.983,371.975h-26.188V112.768c0-22.103-17.981-40.083-40.083-40.083H74.288c-22.103,0-40.083,17.981-40.083,40.083
			v259.207H8.017c-4.427,0-8.017,3.588-8.017,8.017v19.24c0,22.103,17.981,40.083,40.083,40.083h66.271
			c4.427,0,8.017-3.588,8.017-8.017c0-4.428-3.589-8.017-8.017-8.017H40.083c-13.262,0-24.05-10.789-24.05-24.05v-11.223h180.643
			v19.775c0,4.428,3.589,8.017,8.017,8.017h102.614c4.427,0,8.017-3.588,8.017-8.017v-19.775h180.643v11.223
			c0,13.261-10.788,24.05-24.05,24.05H140.56c-4.427,0-8.017,3.588-8.017,8.017c0,4.428,3.589,8.017,8.017,8.017h331.357
			c22.103,0,40.083-17.981,40.083-40.083v-19.24C512,375.563,508.411,371.975,503.983,371.975z M299.29,399.766h-86.58v-11.758
			h86.58V399.766z M461.762,123.992h-30.464c-4.427,0-8.017,3.588-8.017,8.017c0,4.428,3.589,8.017,8.017,8.017h30.464v231.95
			H50.238v-231.95h344.718c4.427,0,8.017-3.588,8.017-8.017c0-4.428-3.589-8.017-8.017-8.017H50.238v-11.223
			c0-13.261,10.788-24.05,24.05-24.05h363.424c13.262,0,24.05,10.789,24.05,24.05V123.992z"/>
	</g>
</g>
<g>
	<g>
		<path d="M273.102,98.338h-34.205c-4.427,0-8.017,3.588-8.017,8.017s3.589,8.017,8.017,8.017h34.205
			c4.427,0,8.017-3.588,8.017-8.017S277.53,98.338,273.102,98.338z"/>
	</g>
</g>
<g>
	<g>
		<path d="M324.409,158.731h-38.48c-4.427,0-8.017,3.588-8.017,8.017v11.907l-91.741,33.521h-46.681
			c-13.262,0-24.05,10.789-24.05,24.05v36.342c0,13.261,10.788,24.05,24.05,24.05h7.974l15.361,49.924
			c1.035,3.363,4.143,5.659,7.662,5.659h12.827c4.427,0,8.017-3.588,8.017-8.017v-45.68l86.58,31.635v11.907
			c0,4.428,3.589,8.017,8.017,8.017h38.48c4.427,0,8.017-3.588,8.017-8.017V166.747
			C332.426,162.319,328.837,158.731,324.409,158.731z M175.299,332.556l-11.058-35.938h11.058V332.556z M179.574,280.585h-26.188
			h-13.896c-4.421,0-8.017-3.596-8.017-8.017v-36.342c0-4.421,3.596-8.017,8.017-8.017h40.083V280.585z M277.912,313.068
			l-82.305-30.072v-57.199l82.305-30.072V313.068z M316.393,334.029h-22.447V174.764h22.447V334.029z"/>
	</g>
</g>
<g>
	<g>
		<path d="M390.681,246.38h-29.929c-4.427,0-8.017,3.588-8.017,8.017c0,4.428,3.589,8.017,8.017,8.017h29.929
			c4.427,0,8.017-3.588,8.017-8.017C398.697,249.968,395.108,246.38,390.681,246.38z"/>
	</g>
</g>
<g>
	<g>
		<path d="M392.563,176.58c-2.835-3.401-7.891-3.86-11.291-1.026l-25.653,21.378c-3.401,2.834-3.861,7.889-1.026,11.291
			c1.586,1.902,3.866,2.884,6.163,2.884c1.81,0,3.63-0.609,5.127-1.858l25.653-21.378
			C394.938,185.037,395.398,179.981,392.563,176.58z"/>
	</g>
</g>
<g>
	<g>
		<path d="M391.537,320.922l-25.653-21.378c-3.401-2.835-8.456-2.374-11.291,1.026c-2.835,3.402-2.375,8.457,1.026,11.291
			l25.653,21.378c1.499,1.25,3.318,1.858,5.127,1.858c2.297,0,4.577-0.982,6.163-2.884
			C395.399,328.812,394.938,323.757,391.537,320.922z"/>
	</g>
</g>
<g>
</g>
<g>
</g>
<g>
</g>
<g>
</g>
<g>
</g>
<g>
</g>
<g>
</g>
<g>
</g>
<g>
</g>
<g>
</g>
<g>
</g>
<g>
</g>
<g>
</g>
<g>
</g>
<g>
</g>
</svg>
